<mxfile host="app.diagrams.net" modified="2024-03-26T03:43:03.834Z" agent="Mozilla/5.0 (Windows NT 10.0; Win64; x64) AppleWebKit/537.36 (KHTML, like Gecko) Chrome/123.0.0.0 Safari/537.36" version="24.1.0" etag="UrRPcoIc85Q8IrG_fruh" type="github">
  <diagram name="Page-1" id="jgrMcViGBsHfd4_gPdMv">
    <mxGraphModel>
      <root>
        <mxCell id="0" />
        <mxCell id="1" parent="0" />
      </root>
    </mxGraphModel>
  </diagram>
</mxfile>
